<?xml version="1.0" standalone="no"?>
<!DOCTYPE svg PUBLIC "-//W3C//DTD SVG 20010904//EN"
 "http://www.w3.org/TR/2001/REC-SVG-20010904/DTD/svg10.dtd">
<svg version="1.0" xmlns="http://www.w3.org/2000/svg"
 width="242.000000pt" height="176.000000pt" viewBox="0 0 242.000000 176.000000"
 preserveAspectRatio="xMidYMid meet">

<g transform="translate(0.000000,176.000000) scale(0.100000,-0.100000)"
fill="#000000" stroke="none">
<path d="M0 880 l0 -880 1210 0 1210 0 0 880 0 880 -1210 0 -1210 0 0 -880z
m1549 599 c25 -25 31 -39 31 -74 l0 -43 103 -59 102 -59 3 -189 2 -190 -112
-64 c-62 -36 -134 -76 -160 -90 l-48 -26 -47 26 c-27 14 -92 51 -147 83 -54
31 -104 56 -110 54 -7 -2 -71 -37 -144 -78 l-131 -75 -1 -166 0 -167 140 -80
140 -81 95 55 95 56 0 50 c0 43 4 54 30 78 51 48 111 47 160 -2 47 -46 40
-127 -14 -170 -23 -19 -111 -25 -121 -8 -11 19 -36 10 -131 -45 -53 -30 -104
-55 -115 -55 -10 0 -67 29 -126 63 -60 35 -127 74 -150 87 l-43 24 0 180 -1
181 -149 85 -150 85 2 190 3 189 150 88 c83 48 156 87 164 87 7 1 54 -23 105
-53 50 -29 118 -69 151 -88 l60 -34 3 -175 2 -175 134 -77 c74 -42 139 -77
146 -77 7 0 73 35 146 77 l134 78 0 160 0 160 -33 19 c-151 86 -157 89 -182
72 -13 -9 -44 -16 -69 -16 -36 0 -50 6 -75 31 -26 26 -31 38 -31 81 0 43 4 54
31 79 25 24 40 29 79 29 41 0 53 -5 79 -31z"/>
<path d="M1422 1447 c-28 -30 -28 -68 1 -95 32 -30 71 -28 96 4 27 35 27 65
-2 92 -30 28 -68 28 -95 -1z"/>
<path d="M819 1347 c-19 -12 -79 -47 -132 -77 l-97 -55 0 -160 0 -160 134 -78
c73 -42 139 -77 146 -77 7 0 73 35 146 77 l134 78 0 160 -1 160 -131 75 c-73
41 -139 76 -148 77 -8 1 -31 -8 -51 -20z"/>
<path d="M1422 407 c-28 -30 -28 -68 1 -95 32 -30 71 -28 96 4 27 35 27 65 -2
92 -30 28 -68 28 -95 -1z"/>
</g>
</svg>
